<?xml version="1.0" standalone="no"?>
<!DOCTYPE svg PUBLIC "-//W3C//DTD SVG 20010904//EN"
 "http://www.w3.org/TR/2001/REC-SVG-20010904/DTD/svg10.dtd">
<svg version="1.0" xmlns="http://www.w3.org/2000/svg"
 width="300.000000pt" height="300.000000pt" viewBox="0 0 300.000000 300.000000"
 preserveAspectRatio="xMidYMid meet">
<metadata>
Created by potrace 1.10, written by Peter Selinger 2001-2011
</metadata>
<g transform="translate(0.000000,300.000000) scale(0.100000,-0.100000)"
fill="#000000" stroke="none">
<path d="M1412 2365 c-52 -29 -79 -59 -90 -99 l-8 -28 -126 1 c-138 2 -173 -6
-219 -52 l-26 -27 -7 -559 c-4 -307 -4 -571 0 -586 14 -55 21 0 23 180 1 101
5 197 7 212 3 15 7 183 8 373 2 372 3 377 56 405 30 16 200 22 200 8 0 -5 -7
-17 -15 -27 -17 -23 -20 -62 -5 -71 6 -3 10 -10 10 -16 0 -18 -25 -8 -57 23
-54 53 -118 36 -150 -40 -11 -27 -14 -135 -13 -597 0 -310 4 -575 9 -588 11
-27 70 -82 100 -92 20 -6 94 25 106 45 3 6 34 29 68 52 34 23 64 45 67 48 3 4
23 19 45 34 22 14 58 39 80 55 37 27 42 28 66 15 15 -7 33 -19 41 -26 13 -13
64 -49 139 -98 20 -14 65 -44 98 -67 60 -41 67 -43 106 -30 26 9 55 57 55 92
0 37 17 23 46 -39 l24 -51 -23 -6 c-13 -3 -42 -18 -66 -33 -131 -83 -328 -146
-457 -146 -132 0 -366 72 -431 133 -13 11 -23 16 -23 11 0 -5 -4 -4 -8 2 -4 5
-18 18 -32 27 -50 34 -123 113 -165 177 -85 131 -119 219 -131 344 -3 34 -7
67 -10 74 -6 19 14 237 25 264 48 124 66 166 79 181 8 9 12 17 8 17 -4 0 -1 6
6 14 36 39 30 -37 -11 -133 -15 -36 -36 -105 -46 -153 -41 -199 15 -462 123
-580 37 -40 47 -34 17 10 -47 71 -92 167 -111 237 -27 103 -25 276 4 378 19
66 56 157 65 157 1 0 2 -64 2 -142 0 -181 12 -268 37 -268 5 0 7 12 4 28 -13
69 -19 194 -18 396 l1 220 -25 -30 c-44 -53 -114 -171 -139 -233 -55 -141 -71
-344 -39 -505 17 -84 78 -227 131 -304 106 -155 293 -281 493 -333 118 -30
318 -24 430 14 102 35 177 70 235 112 28 19 53 35 56 35 3 0 12 -18 19 -39 37
-114 168 -146 245 -61 28 31 26 120 -4 180 -72 140 -180 294 -220 315 -37 18
-48 50 -27 74 31 35 56 108 57 173 3 154 -113 278 -262 278 -86 0 -133 -17
-189 -67 -68 -61 -94 -125 -88 -223 6 -92 29 -142 94 -199 59 -52 135 -76 210
-67 62 7 68 1 65 -65 -1 -28 4 -58 12 -71 28 -45 -5 -178 -45 -178 -4 0 -41
24 -80 53 -88 63 -106 76 -212 150 -76 53 -86 58 -108 46 -24 -12 -143 -99
-286 -207 l-83 -63 -44 31 -45 31 0 593 c0 582 0 593 20 614 28 30 68 29 80
-2 5 -14 18 -30 29 -35 13 -7 129 -11 324 -11 293 0 305 1 331 21 14 11 26 27
26 35 0 26 56 17 79 -13 20 -24 21 -37 19 -185 l-1 -159 42 -21 c143 -70 204
-262 132 -414 l-29 -62 38 -37 c21 -20 53 -63 71 -96 19 -32 37 -59 40 -59 14
0 57 110 78 200 36 153 26 358 -25 502 -24 69 -82 168 -140 241 -30 37 -58 67
-62 67 -4 0 -4 -37 -1 -82 5 -74 9 -90 47 -153 23 -38 54 -108 68 -155 23 -73
27 -104 28 -215 1 -109 -3 -142 -22 -202 -12 -40 -26 -74 -30 -76 -4 -2 -17
15 -28 38 l-22 42 22 44 c17 36 21 62 21 144 -1 85 -4 107 -25 148 -25 50 -49
80 -77 96 -16 9 -18 31 -20 218 -3 241 -5 262 -36 291 -45 42 -91 53 -220 51
l-121 -1 -8 27 c-4 16 -22 44 -40 62 -64 67 -142 80 -216 38z m164 -89 c19
-19 34 -43 34 -54 0 -43 10 -52 59 -52 57 0 84 -17 79 -51 l-3 -24 -244 -3
c-245 -2 -271 1 -271 34 0 26 31 44 79 44 52 0 71 12 71 48 0 14 14 38 34 58
29 29 41 34 81 34 40 0 52 -5 81 -34z m372 -87 c57 -20 64 -45 76 -246 10
-185 7 -212 -24 -193 -11 7 -15 41 -17 160 -2 169 -9 191 -66 215 -36 15 -65
7 -110 -31 -35 -29 -41 -27 -28 10 11 27 -3 76 -21 76 -5 0 -6 5 -3 10 8 13
154 13 193 -1z m267 -361 c64 -117 103 -311 91 -447 -7 -80 -42 -229 -58 -248
-9 -11 -13 -12 -19 -1 -14 21 -10 63 8 104 13 31 17 71 17 184 1 177 -6 215
-65 347 -10 24 -19 45 -19 49 0 3 -10 20 -23 37 -13 18 -24 48 -25 67 l-3 35
35 -40 c20 -22 47 -61 61 -87z m-318 -172 c64 -13 131 -78 156 -150 22 -66 13
-151 -23 -209 -33 -53 -36 -79 -15 -117 20 -34 19 -37 -14 -48 -26 -9 -31 -7
-50 19 -21 28 -25 29 -101 29 -69 0 -86 4 -122 26 -50 32 -67 48 -99 94 -21
31 -24 46 -24 127 0 85 2 94 30 134 40 56 73 79 137 94 49 12 68 12 125 1z
m210 -608 c78 -120 135 -244 131 -286 -2 -30 -8 -38 -30 -46 -50 -17 -70 5
-147 161 -86 173 -91 193 -60 222 38 35 56 27 106 -51z m164 -320 c-12 -32
-71 -73 -71 -49 0 5 11 12 24 15 14 3 29 18 36 36 15 36 25 34 11 -2z"/>
<path d="M1454 2225 c-15 -23 -15 -27 0 -50 20 -30 49 -32 76 -5 26 26 25 45
-2 64 -32 23 -55 20 -74 -9z"/>
<path d="M1765 1627 c-58 -24 -75 -38 -105 -90 -83 -145 11 -317 173 -317 152
0 252 162 184 299 -31 64 -101 111 -169 116 -29 2 -66 -2 -83 -8z m170 -62
c145 -110 28 -358 -145 -306 -48 14 -86 44 -106 84 -23 44 -23 124 1 172 43
85 171 111 250 50z"/>
<path d="M1865 1460 l-49 -50 -27 26 c-28 26 -59 29 -67 6 -4 -13 78 -102 95
-102 19 0 135 130 131 147 -6 33 -33 24 -83 -27z"/>
<path d="M2065 964 c77 -164 109 -220 120 -214 12 6 20 -11 -70 173 -45 93
-82 157 -90 157 -10 0 2 -35 40 -116z"/>
<path d="M1384 1929 c-14 -23 17 -30 132 -27 104 3 119 5 122 21 3 15 -8 17
-122 17 -79 0 -127 -4 -132 -11z"/>
<path d="M1153 1873 c-17 -6 -17 -105 -1 -121 7 -7 35 -12 63 -12 28 0 56 5
63 12 7 7 12 33 12 58 0 25 -5 51 -12 58 -12 12 -100 15 -125 5z m100 -63 c-8
-29 -73 -29 -73 0 0 22 10 26 26 10 8 -8 15 -6 24 4 16 20 30 12 23 -14z"/>
<path d="M1391 1791 c-8 -5 -11 -16 -8 -25 5 -13 25 -16 125 -16 87 0 123 4
131 13 22 28 -9 37 -124 37 -60 0 -116 -4 -124 -9z"/>
<path d="M1391 1641 c-8 -5 -11 -16 -8 -25 9 -22 172 -24 180 -2 3 7 0 19 -6
25 -13 13 -146 15 -166 2z"/>
<path d="M1144 1627 c-3 -8 -4 -36 -2 -63 l3 -49 70 0 70 0 0 60 0 60 -68 3
c-51 2 -69 -1 -73 -11z m82 -43 c9 24 24 19 24 -9 0 -22 -4 -25 -35 -25 -31 0
-35 3 -35 27 0 25 1 26 20 8 18 -16 20 -16 26 -1z"/>
<path d="M1384 1479 c-11 -18 9 -27 61 -29 73 -3 75 -2 75 20 0 18 -7 20 -64
20 -36 0 -68 -5 -72 -11z"/>
<path d="M1259 1363 l-49 -46 -24 22 c-25 24 -46 21 -46 -5 0 -17 57 -69 76
-69 17 0 124 103 124 119 0 33 -33 24 -81 -21z"/>
<path d="M1385 1340 c-13 -21 11 -31 66 -28 40 2 54 7 54 18 0 19 -109 28
-120 10z"/>
<path d="M1383 1204 c-9 -25 16 -34 102 -34 87 0 109 8 99 33 -9 25 -191 25
-201 1z"/>
<path d="M1299 1177 c-8 -7 -29 -31 -47 -51 l-33 -38 -29 27 c-16 15 -33 24
-39 21 -21 -14 -10 -42 30 -81 l41 -40 59 65 c62 68 68 80 45 99 -11 9 -17 8
-27 -2z"/>
<path d="M1430 939 c-30 -22 -66 -48 -80 -57 -49 -32 -111 -86 -121 -104 -25
-47 49 -86 192 -103 73 -9 243 18 314 50 77 34 69 47 -11 18 -124 -44 -296
-47 -429 -6 l-59 19 79 56 c44 31 107 77 139 102 l60 45 75 -54 c156 -109 213
-143 196 -116 -6 11 -123 101 -130 101 -3 0 -32 20 -66 45 -34 25 -71 45 -83
44 -11 0 -46 -18 -76 -40z"/>
<path d="M1510 826 c0 -89 10 -126 24 -90 8 20 8 148 0 168 -15 39 -24 9 -24
-78z"/>
</g>
</svg>
